<svg width="62" height="61" viewBox="0 0 62 61" fill="none" xmlns="http://www.w3.org/2000/svg">
<path d="M30.9688 60.9375C14.4062 60.9375 0.6875 47.2188 0.6875 30.6562C0.6875 14.0938 14.4062 0.375 30.9375 0.375C47.5 0.375 61.25 14.0938 61.25 30.6562C61.25 47.2188 47.5312 60.9375 30.9688 60.9375ZM27.6875 45.1562C28.7188 45.1562 29.5938 44.6562 30.2188 43.6562L44.125 21.9062C44.5 21.2812 44.875 20.5625 44.875 19.9062C44.875 18.4688 43.625 17.5312 42.25 17.5312C41.4062 17.5312 40.625 18 40.0625 18.9688L27.5625 39L21.6562 31.4062C20.9375 30.4375 20.25 30.1562 19.375 30.1562C17.9688 30.1562 16.875 31.2812 16.875 32.6875C16.875 33.375 17.1562 34.0625 17.625 34.6562L24.9688 43.6875C25.7812 44.7188 26.625 45.1562 27.6875 45.1562Z" fill="#248A3D"/>
</svg>
